# xmcd CD database file
#
# Track frame offsets:
#	150
#	15857
#	46490
#
# Disc length: 823 seconds
#
# Revision: 0
# Processed by: cddbd v1.5.1PL0 Copyright (c) Steve Scherf et al.
# Submitted via: CDex 1.51
#
DISCID=16033503
DTITLE=カードキャプターさくら - 劇場版ケロちゃんにおまかせ!主題歌 おかしのうた
DYEAR=2000
DGENRE=Anime
TTITLE0=劇場版ケロちゃんにおまかせ!主題歌 おかしのうた
TTITLE1=劇場版ケロちゃんにおまかせ!BGM 組曲「タコヤキは踊る」
TTITLE2=おかしのうた(オリジナル・カラオケ)
EXTD=YEAR: 2000
EXTT0=
EXTT1=
EXTT2=
PLAYORDER=
